<mxfile host="app.diagrams.net" modified="2022-01-23T22:35:56.160Z" agent="5.0 (Macintosh; Intel Mac OS X 10_15_7) AppleWebKit/537.36 (KHTML, like Gecko) Chrome/97.0.4692.99 Safari/537.36" etag="bwFm-SGwFmhAMx17nwwM" version="16.4.5" type="github">
  <diagram id="R2lEEEUBdFMjLlhIrx00" name="Page-1">
    <mxGraphModel dx="1186" dy="1309" grid="1" gridSize="10" guides="1" tooltips="1" connect="1" arrows="1" fold="1" page="1" pageScale="1" pageWidth="850" pageHeight="1100" math="0" shadow="0" extFonts="Permanent Marker^https://fonts.googleapis.com/css?family=Permanent+Marker">
      <root>
        <mxCell id="0" />
        <mxCell id="1" parent="0" />
        <mxCell id="oHXYVlpxxIAV_x4sxMKH-14" value="Review" style="swimlane;childLayout=stackLayout;horizontal=1;startSize=30;horizontalStack=0;rounded=1;fontSize=14;fontStyle=0;strokeWidth=2;resizeParent=0;resizeLast=1;shadow=0;dashed=0;align=center;" parent="1" vertex="1">
          <mxGeometry x="30" y="310" width="330" height="300" as="geometry" />
        </mxCell>
        <mxCell id="oHXYVlpxxIAV_x4sxMKH-15" value="+user_id&#xa;+body&#xa;+rating&#xa;+trail_id&#xa;&#xa;belongs_to :user&#xa;belongs_to :trail&#xa;has_many_attached :photos&#xa;has_many :comments&#xa;has_many :likes&#xa;&#xa;RESTful routes&#xa;    - index&#xa;    - show&#xa;    - create&#xa;    - destroy&#xa;" style="align=left;strokeColor=none;fillColor=none;spacingLeft=4;fontSize=12;verticalAlign=top;resizable=0;rotatable=0;part=1;" parent="oHXYVlpxxIAV_x4sxMKH-14" vertex="1">
          <mxGeometry y="30" width="330" height="270" as="geometry" />
        </mxCell>
        <mxCell id="oHXYVlpxxIAV_x4sxMKH-16" value="User" style="swimlane;childLayout=stackLayout;horizontal=1;startSize=30;horizontalStack=0;rounded=1;fontSize=14;fontStyle=0;strokeWidth=2;resizeParent=0;resizeLast=1;shadow=0;dashed=0;align=center;" parent="1" vertex="1">
          <mxGeometry x="30" y="110" width="330" height="180" as="geometry" />
        </mxCell>
        <mxCell id="oHXYVlpxxIAV_x4sxMKH-17" value="+firebase_id&#xa;. . .&#xa;&#xa;has_many :reviews&#xa;has_many :comments" style="align=left;strokeColor=none;fillColor=none;spacingLeft=4;fontSize=12;verticalAlign=top;resizable=0;rotatable=0;part=1;" parent="oHXYVlpxxIAV_x4sxMKH-16" vertex="1">
          <mxGeometry y="30" width="330" height="150" as="geometry" />
        </mxCell>
        <mxCell id="oHXYVlpxxIAV_x4sxMKH-19" value="Comment" style="swimlane;childLayout=stackLayout;horizontal=1;startSize=30;horizontalStack=0;rounded=1;fontSize=14;fontStyle=0;strokeWidth=2;resizeParent=0;resizeLast=1;shadow=0;dashed=0;align=center;" parent="1" vertex="1">
          <mxGeometry x="400" y="310" width="340" height="300" as="geometry" />
        </mxCell>
        <mxCell id="oHXYVlpxxIAV_x4sxMKH-20" value="+commentabe_id&#xa;+commentable_type&#xa;+parent_comment_id (optional)&#xa;+user_id&#xa;+body&#xa;&#xa;belongs_to :user&#xa;belongs_to :commetable&#xa;has_many :likes&#xa;belongs_to :parent_comment, required: false&#xa;has_many :child_comments&#xa;&#xa;RESTful routes&#xa;    - index&#xa;    - show&#xa;    - create&#xa;    - destroy&#xa;    " style="align=left;strokeColor=none;fillColor=none;spacingLeft=4;fontSize=12;verticalAlign=top;resizable=0;rotatable=0;part=1;" parent="oHXYVlpxxIAV_x4sxMKH-19" vertex="1">
          <mxGeometry y="30" width="340" height="270" as="geometry" />
        </mxCell>
        <mxCell id="oHXYVlpxxIAV_x4sxMKH-23" value="Like" style="swimlane;childLayout=stackLayout;horizontal=1;startSize=30;horizontalStack=0;rounded=1;fontSize=14;fontStyle=0;strokeWidth=2;resizeParent=0;resizeLast=1;shadow=0;dashed=0;align=center;" parent="1" vertex="1">
          <mxGeometry x="30" y="630" width="330" height="180" as="geometry" />
        </mxCell>
        <mxCell id="oHXYVlpxxIAV_x4sxMKH-24" value="+likeable_id&#xa;+likeable_type&#xa;+user_id&#xa;&#xa;RESTful routes&#xa;&#xa;RESTful routes&#xa;    - create&#xa;    - destroy" style="align=left;strokeColor=none;fillColor=none;spacingLeft=4;fontSize=12;verticalAlign=top;resizable=0;rotatable=0;part=1;" parent="oHXYVlpxxIAV_x4sxMKH-23" vertex="1">
          <mxGeometry y="30" width="330" height="150" as="geometry" />
        </mxCell>
        <mxCell id="oHXYVlpxxIAV_x4sxMKH-25" value="Trail" style="swimlane;childLayout=stackLayout;horizontal=1;startSize=30;horizontalStack=0;rounded=1;fontSize=14;fontStyle=0;strokeWidth=2;resizeParent=0;resizeLast=1;shadow=0;dashed=0;align=center;" parent="1" vertex="1">
          <mxGeometry x="400" y="110" width="340" height="180" as="geometry" />
        </mxCell>
        <mxCell id="oHXYVlpxxIAV_x4sxMKH-26" value="+firebase_id&#xa;. . .&#xa;&#xa;has_many :reviews" style="align=left;strokeColor=none;fillColor=none;spacingLeft=4;fontSize=12;verticalAlign=top;resizable=0;rotatable=0;part=1;" parent="oHXYVlpxxIAV_x4sxMKH-25" vertex="1">
          <mxGeometry y="30" width="340" height="150" as="geometry" />
        </mxCell>
      </root>
    </mxGraphModel>
  </diagram>
</mxfile>
